<svg width="75" height="56" viewBox="0 0 75 56" fill="none" xmlns="http://www.w3.org/2000/svg">
<path d="M60.9375 37.3321C60.9375 40.8702 59.3 42.6018 56.25 42.6658H18.75C15.7 42.6018 14.0625 40.8702 14.0625 37.3321C14.0625 33.7941 15.7 32.0625 18.75 31.9985H56.25C59.3 32.0625 60.9375 33.7941 60.9375 37.3321ZM56.25 45.3327H18.75C15.7 45.3967 14.0625 47.1283 14.0625 50.6663C14.0625 54.2043 15.7 55.936 18.75 56H56.25C59.3 55.936 60.9375 54.2043 60.9375 50.6663C60.9375 47.1283 59.3 45.3967 56.25 45.3327ZM67.9688 16.0046V16.001C64.9187 16.0615 63.2812 17.7931 63.2812 21.3311V50.6663C63.2812 54.2043 64.9187 55.936 67.9688 56V55.9929C72.5437 55.808 75 50.6094 75 39.999V26.6648C75 19.5888 72.5437 16.1255 67.9688 16.0046V16.0046ZM7.03125 16.001C2.45625 16.129 0 19.5959 0 26.6684V40.0025C0 50.613 2.45625 55.8115 7.03125 55.9964V56C10.0813 55.9396 11.7188 54.2079 11.7188 50.6699V21.3347C11.7188 17.7967 10.0813 16.065 7.03125 16.001V16.001ZM67.9688 13.3342C67.9688 4.49451 63.875 0.16001 56.25 0.00711105V0H18.75V0.00711105C11.125 0.16001 7.03125 4.49451 7.03125 13.3342V13.3377C11.6062 13.4302 14.0625 16.0295 14.0625 21.3347C14.0625 26.6399 16.5188 29.2392 21.0938 29.3316V29.3352H53.9062V29.3316C58.4812 29.2392 60.9375 26.6399 60.9375 21.3347C60.9375 16.0295 63.3938 13.4302 67.9688 13.3377V13.3342Z" fill="black"/>
</svg>
